<mxfile host="app.diagrams.net" modified="2023-05-14T20:25:02.754Z" agent="Mozilla/5.0 (Windows NT 10.0; Win64; x64) AppleWebKit/537.36 (KHTML, like Gecko) Chrome/113.0.0.0 Safari/537.36 Edg/113.0.1774.42" version="21.3.0" etag="8VAsK0TTIB4hb6l5HF0Z" type="github">
  <diagram name="Page-1" id="lIQffb6lNMWRgvtzGYM3">
    <mxGraphModel>
      <root>
        <mxCell id="0" />
        <mxCell id="1" parent="0" />
      </root>
    </mxGraphModel>
  </diagram>
</mxfile>
